<svg width="41" height="40" viewBox="0 0 41 40" fill="none" xmlns="http://www.w3.org/2000/svg">
<path fill-rule="evenodd" clip-rule="evenodd" d="M20.3672 0C21.2109 0 22.25 0.0312561 22.6641 0.0781403C23.0859 0.11721 23.8672 0.242235 24.4062 0.351631C24.9453 0.461028 25.7031 0.64075 26.0859 0.750147C26.4688 0.859543 27.1953 1.10959 27.6875 1.29713C28.1797 1.48467 29.0781 1.89881 29.6797 2.21137C30.2812 2.51612 31.1094 2.99277 31.5156 3.26626C31.9219 3.53975 32.5938 4.02422 33 4.35241C33.4062 4.67279 34.2031 5.39949 34.7578 5.9621C35.3125 6.52471 36.0781 7.39207 36.4453 7.88435C36.8125 8.37664 37.2891 9.06427 37.5078 9.40809C37.7266 9.75191 38.125 10.4708 38.3906 11.01C38.6563 11.5491 39.0313 12.3696 39.2109 12.8463C39.3906 13.3229 39.6328 14.0262 39.7422 14.4091C39.8516 14.792 40.0312 15.5499 40.1406 16.0891C40.25 16.6282 40.375 17.4097 40.4141 17.8238C40.4609 18.2458 40.5 19.2225 40.5 19.9961C40.5 20.7697 40.4609 21.7464 40.4141 22.1606C40.375 22.5825 40.25 23.3483 40.1484 23.864C40.0469 24.3798 39.8516 25.169 39.7266 25.6222C39.5938 26.0754 39.3438 26.8099 39.1719 27.2631C38.9922 27.7164 38.5938 28.5759 38.2813 29.1776C37.9766 29.7793 37.5 30.6075 37.2266 31.0139C36.9531 31.4202 36.4609 32.0922 36.1406 32.4985C35.8125 32.9049 35.2422 33.5534 34.875 33.9363C34.5078 34.3192 33.8594 34.9287 33.4297 35.2881C33 35.6476 32.1875 36.2493 31.6328 36.6322C31.0781 37.0072 30.1797 37.5386 29.6406 37.8121C29.1016 38.0778 28.2969 38.4528 27.8438 38.6325C27.3906 38.8123 26.6328 39.0779 26.1641 39.2108C25.6875 39.3436 24.8828 39.5468 24.3672 39.6484C23.8516 39.75 23.0859 39.875 22.6641 39.914C22.25 39.9609 21.2734 40 20.5 40C19.7266 40 18.75 39.9609 18.3281 39.914C17.9141 39.875 17.1328 39.75 16.5938 39.6406C16.0547 39.539 15.2656 39.3436 14.8359 39.2108C14.4062 39.0858 13.7187 38.8513 13.3125 38.6951C12.9063 38.5388 12.1094 38.1871 11.5547 37.9058C10.9922 37.6324 10.2578 37.226 9.91406 37.0072C9.57031 36.7884 9.00781 36.3977 8.66406 36.1477C8.32031 35.8898 7.75781 35.4444 7.41406 35.1553C7.07031 34.8662 6.49219 34.3114 6.125 33.9363C5.75781 33.5534 5.1875 32.9049 4.85937 32.4985C4.53906 32.0922 4.04688 31.4202 3.77344 31.0139C3.5 30.6075 3.02344 29.7793 2.71875 29.1776C2.40625 28.5759 1.99219 27.6773 1.80469 27.185C1.61719 26.6927 1.36719 25.966 1.25781 25.5831C1.14844 25.2002 0.96875 24.4423 0.859375 23.9031C0.75 23.3639 0.625 22.5825 0.585938 22.1606C0.539062 21.7464 0.5 20.7619 0.5 19.9727C0.5 19.1912 0.539062 18.2301 0.578125 17.8472C0.625 17.4643 0.726562 16.7611 0.820312 16.2844C0.90625 15.8078 1.08594 15.042 1.21875 14.5653C1.35156 14.0887 1.60156 13.3229 1.78906 12.8463C1.96875 12.3696 2.36719 11.4944 2.67187 10.8928C2.97656 10.2911 3.46094 9.44716 3.75 9.01739C4.03125 8.58762 4.53125 7.89998 4.85156 7.49365C5.17969 7.08732 5.90625 6.29811 6.46875 5.7355C7.03125 5.17289 7.89844 4.41492 8.39062 4.04767C8.88281 3.68041 9.57812 3.19594 9.92969 2.96933C10.2891 2.75054 11.0078 2.35202 11.5312 2.09416C12.0625 1.82848 12.875 1.46122 13.3516 1.2815C13.8203 1.10178 14.5234 0.859543 14.9141 0.750147C15.2969 0.64075 16.0547 0.461028 16.5938 0.351631C17.1328 0.242235 17.8516 0.125024 18.1953 0.0859543C18.5391 0.0468842 19.5156 0.00781403 20.3594 0L20.3672 0ZM16.4844 3.7351C16.1406 3.82106 15.4922 4.01641 15.0391 4.17269C14.5859 4.32897 13.7266 4.69623 13.125 4.99316C12.5234 5.2901 11.7266 5.7355 11.3516 5.98554C10.9844 6.23559 10.3984 6.65755 10.0625 6.92323C9.72656 7.1889 9.09375 7.76714 8.65625 8.21254C8.21875 8.65794 7.6875 9.22837 7.47656 9.48623C7.26563 9.74409 6.85156 10.3067 6.5625 10.7365C6.28125 11.1662 5.80469 12.0102 5.50781 12.6118C5.21094 13.2135 4.84375 14.0731 4.6875 14.5263C4.53125 14.9795 4.33594 15.6281 4.25 15.9719C4.15625 16.3157 4.02344 17.0502 3.9375 17.6128C3.83594 18.3083 3.78906 19.0584 3.78906 19.9961C3.78906 20.9338 3.83594 21.6839 3.9375 22.3794C4.02344 22.9342 4.15625 23.6765 4.25 24.0203C4.33594 24.3641 4.53125 25.0127 4.6875 25.4659C4.84375 25.9191 5.21094 26.7787 5.50781 27.3803C5.80469 27.982 6.25781 28.7947 6.51562 29.1776C6.77344 29.5605 7.17969 30.1231 7.42187 30.4278C7.65625 30.7326 8.21875 31.3342 8.65625 31.7796C9.09375 32.225 9.72656 32.8033 10.0625 33.069C10.3984 33.3346 10.9844 33.7566 11.3516 34.0066C11.7266 34.2567 12.5234 34.7021 13.125 34.999C13.7266 35.296 14.5859 35.6632 15.0391 35.8195C15.4922 35.9758 16.1406 36.1711 16.4844 36.2571C16.8281 36.3509 17.5625 36.4837 18.125 36.5696C18.8203 36.6712 19.5703 36.7181 20.5078 36.7181C21.4453 36.7181 22.1953 36.6712 22.8906 36.5696C23.4453 36.4837 24.2734 36.3196 24.7266 36.2024C25.1797 36.0852 25.9531 35.8351 26.4453 35.6476C26.9375 35.4601 27.7266 35.1006 28.2031 34.8584C28.6719 34.6083 29.3594 34.2098 29.7266 33.9676C30.0938 33.7253 30.6328 33.3268 30.9375 33.0846C31.2422 32.8502 31.8437 32.2876 32.2891 31.85C32.7344 31.4124 33.3125 30.7795 33.5781 30.4434C33.8437 30.1074 34.2656 29.5214 34.5156 29.1541C34.7656 28.7791 35.2109 27.982 35.5078 27.3803C35.8047 26.7787 36.1719 25.9191 36.3281 25.4659C36.4844 25.0127 36.6797 24.3641 36.7656 24.0203C36.8594 23.6765 36.9922 22.9342 37.0781 22.3794C37.1797 21.6839 37.2266 20.9338 37.2266 19.9961C37.2266 19.0584 37.1797 18.3083 37.0781 17.6128C36.9922 17.0502 36.8594 16.3157 36.7656 15.9719C36.6797 15.6281 36.4844 14.9795 36.3281 14.5263C36.1719 14.0731 35.8047 13.2135 35.5078 12.6118C35.2109 12.0102 34.7656 11.2131 34.5156 10.8381C34.2656 10.4708 33.8437 9.88474 33.5781 9.54874C33.3125 9.21274 32.7344 8.5798 32.2891 8.14222C31.8437 7.70463 31.2734 7.17328 31.0156 6.9623C30.7578 6.75132 30.1953 6.33718 29.7656 6.05587C29.3359 5.76675 28.5781 5.32917 28.0859 5.07912C27.5938 4.82907 26.7969 4.47744 26.3281 4.29771C25.8516 4.12581 25.1328 3.89139 24.7266 3.78199C24.3203 3.67259 23.5078 3.51631 22.9297 3.43036C22.1484 3.31315 21.5 3.27408 20.4297 3.28189C19.4609 3.28189 18.6797 3.33659 18.0469 3.43036C17.5313 3.5085 16.8281 3.64134 16.4844 3.7351V3.7351ZM17.8516 11.596C20.1641 11.6116 21.3984 11.6507 22.1484 11.7445C22.7266 11.807 23.5703 11.9164 24.0234 11.9867C24.4766 12.057 25.1953 12.1821 25.625 12.268C26.0547 12.354 26.6875 12.4946 27.0313 12.5806C27.375 12.6665 28.0938 12.8697 28.6328 13.0416C29.1719 13.2057 29.9922 13.5105 30.4688 13.7058C30.9375 13.9012 31.4375 14.1434 31.5625 14.245C31.6875 14.3387 31.875 14.5732 31.9687 14.7685C32.0859 14.9873 32.1484 15.253 32.1484 15.503C32.1484 15.714 32.0781 16.0344 32.0078 16.2063C31.9297 16.3782 31.7266 16.6361 31.5547 16.7689C31.3906 16.9096 31.0938 17.058 30.8984 17.1049C30.6641 17.1596 30.4453 17.1674 30.2344 17.1127C30.0625 17.0736 29.5703 16.8939 29.1406 16.7142C28.7109 16.5345 27.8984 16.2532 27.3438 16.0813C26.7891 15.9094 25.7344 15.6515 25 15.5108C24.2656 15.3624 23.1953 15.1827 22.6172 15.1201C22.0391 15.0498 21.1016 14.956 20.5469 14.917C19.9844 14.8701 18.5781 14.8388 17.4219 14.8388C16.2578 14.8388 14.8203 14.8779 14.2188 14.917C13.6172 14.956 12.5938 15.0498 11.9531 15.1201C11.0547 15.2139 10.7031 15.2217 10.4453 15.1592C10.2656 15.1123 9.99219 14.956 9.82813 14.8154C9.67188 14.6826 9.48438 14.4247 9.40625 14.2528C9.32812 14.0809 9.25781 13.7839 9.25781 13.5886C9.25781 13.3932 9.32812 13.0963 9.40625 12.9244C9.48438 12.7525 9.64844 12.5181 9.77344 12.4009C9.89844 12.2836 10.125 12.143 10.2734 12.0805C10.4219 12.018 11.0547 11.9086 11.6797 11.8383C12.3047 11.7679 13.2188 11.6742 13.7109 11.6429C14.2031 11.6038 16.0703 11.5804 17.8516 11.596V11.596ZM17.9688 17.8472C19.7031 17.8629 21.0078 17.9176 21.7188 17.9957C22.3203 18.066 23.3594 18.2067 24.0234 18.3239C24.6875 18.4333 25.6953 18.6443 26.25 18.7849C26.8047 18.9334 27.6875 19.1912 28.2031 19.371C28.7188 19.5507 29.4219 19.8242 29.7656 19.9961C30.25 20.2227 30.4453 20.3634 30.625 20.629C30.8359 20.926 30.8594 21.0197 30.8594 21.5667C30.8594 22.1137 30.8359 22.1996 30.625 22.5044C30.5 22.6841 30.25 22.9029 30.0781 22.9967C29.9063 23.0826 29.5859 23.1686 29.375 23.1842C29.0547 23.2155 28.8594 23.1608 28.2422 22.9029C27.8359 22.731 27.1641 22.4888 26.7578 22.3559C26.3516 22.2231 25.6641 22.0277 25.2344 21.9183C24.8047 21.8168 24.1563 21.6761 23.7891 21.6058C23.4219 21.5433 22.7031 21.4339 22.1875 21.3714C21.6719 21.301 20.7188 21.2151 20.0781 21.1682C19.4297 21.1291 18.2734 21.0901 17.5 21.0901C16.7266 21.0901 15.5156 21.1291 14.8047 21.1682C14.0938 21.2151 13.0703 21.301 12.5156 21.3635C11.7188 21.4573 11.4531 21.4651 11.1484 21.387C10.8906 21.3245 10.6797 21.1916 10.4453 20.9572C10.2578 20.7619 10.0859 20.4962 10.0391 20.3243C10 20.168 9.96094 19.9101 9.96094 19.7617C9.96094 19.6132 10.0469 19.3085 10.1484 19.0975C10.2578 18.8709 10.4688 18.613 10.6406 18.488C10.8672 18.3239 11.1094 18.2458 11.6406 18.1676C12.0234 18.1051 12.8672 18.0191 13.5156 17.9723C14.1563 17.9254 14.8281 17.8707 15 17.8551C15.1719 17.8394 16.5078 17.8316 17.9688 17.8472V17.8472ZM17.7734 23.8719C18.6953 23.8953 19.8594 23.9422 20.3516 23.9891C20.8438 24.0281 21.6172 24.1219 22.0703 24.1844C22.5234 24.2469 23.2422 24.3719 23.6719 24.4579C24.1016 24.5439 24.8906 24.7392 25.4297 24.8877C25.9688 25.044 26.7578 25.3018 27.1875 25.4659C27.6172 25.6378 28.125 25.8722 28.3203 25.9973C28.5469 26.1379 28.7344 26.3333 28.8516 26.5599C28.9766 26.8099 29.0234 27.0443 29.0234 27.3803C29.0234 27.7398 28.9844 27.9273 28.8281 28.1852C28.7188 28.3649 28.5 28.5993 28.3359 28.7087C28.1406 28.8416 27.8984 28.9197 27.5781 28.951C27.1484 28.9979 27.0391 28.9666 26.25 28.6462C25.7734 28.4509 25.0234 28.1852 24.5703 28.0602C24.1172 27.9351 23.3984 27.7554 22.9688 27.6695C22.5391 27.5757 21.75 27.4507 21.2109 27.3803C20.6719 27.3178 19.5156 27.2241 18.6328 27.185C17.5547 27.1303 16.5078 27.1303 15.4297 27.185C14.5469 27.2319 13.3906 27.31 12.8516 27.3725C12.2266 27.435 11.7656 27.4507 11.5625 27.4116C11.3906 27.3725 11.1094 27.2241 10.9453 27.0834C10.7734 26.9506 10.5703 26.6927 10.4922 26.5208C10.4219 26.3489 10.3516 26.0363 10.3516 25.8175C10.3516 25.6066 10.4219 25.2862 10.5 25.1143C10.5781 24.9424 10.7266 24.7236 10.8281 24.6298C10.9297 24.536 11.1484 24.4032 11.3047 24.3407C11.4688 24.2704 12.0703 24.161 12.6328 24.0985C13.2031 24.0281 14.2188 23.9422 14.8828 23.9031C15.5469 23.8719 16.8516 23.8562 17.7734 23.8719V23.8719Z" fill="white"/>
</svg>
