<svg width="41" height="34" viewBox="0 0 41 34" fill="none" xmlns="http://www.w3.org/2000/svg">
<path d="M39.6309 5.58652C39.2647 3.28017 37.1561 1.26478 34.8226 0.99748C25.2998 -0.0402864 15.6923 -0.040012 6.16953 0.998298C3.84444 1.26469 1.73589 3.2799 1.36778 5.59489C0.210283 13.1571 0.210743 20.8515 1.36914 28.4135C1.73579 30.72 3.84444 32.7352 6.17736 33.0023C10.9339 33.5211 15.7152 33.781 20.5 33.7806C25.2848 33.781 30.0661 33.5211 34.8226 33.0023L34.8303 33.0015C37.1557 32.7354 39.2644 30.7201 39.6322 28.4049C40.7897 20.8428 40.7893 13.1485 39.6309 5.58652ZM27.2893 18.2401L18.3456 24.2026C18.1211 24.3523 17.8602 24.4382 17.5907 24.4512C17.3212 24.4642 17.0533 24.4039 16.8154 24.2766C16.5775 24.1493 16.3787 23.9598 16.24 23.7283C16.1014 23.4969 16.0282 23.2322 16.0281 22.9624V11.0374C16.0282 10.7676 16.1014 10.5029 16.24 10.2714C16.3787 10.04 16.5775 9.85052 16.8154 9.72321C17.0533 9.59591 17.3212 9.53555 17.5907 9.54858C17.8602 9.5616 18.1211 9.64752 18.3456 9.79717L27.2893 15.7596C27.4935 15.8958 27.6609 16.0802 27.7767 16.2965C27.8925 16.5129 27.9531 16.7545 27.9531 16.9999C27.9531 17.2453 27.8925 17.4869 27.7767 17.7032C27.6609 17.9196 27.4935 18.104 27.2893 18.2401Z" fill="white"/>
</svg>
